<mxfile host="app.diagrams.net" agent="Mozilla/5.0 (Windows NT 10.0; Win64; x64) AppleWebKit/537.36 (KHTML, like Gecko) Chrome/137.0.0.0 Safari/537.36" version="27.1.1">
  <diagram name="Page-1" id="LE0PijslWb5b1zE0EbAd">
    <mxGraphModel dx="1042" dy="631" grid="1" gridSize="10" guides="1" tooltips="1" connect="1" arrows="1" fold="1" page="1" pageScale="1" pageWidth="827" pageHeight="1169" math="0" shadow="0">
      <root>
        <mxCell id="0" />
        <mxCell id="1" parent="0" />
        <mxCell id="ngdOXHzbLKuu0vALFX47-9" value="" style="edgeStyle=orthogonalEdgeStyle;rounded=0;orthogonalLoop=1;jettySize=auto;html=1;" parent="1" source="ngdOXHzbLKuu0vALFX47-1" target="ngdOXHzbLKuu0vALFX47-8" edge="1">
          <mxGeometry relative="1" as="geometry" />
        </mxCell>
        <mxCell id="ngdOXHzbLKuu0vALFX47-1" value="User frontend service" style="rounded=0;whiteSpace=wrap;html=1;" parent="1" vertex="1">
          <mxGeometry x="40" y="40" width="100" height="80" as="geometry" />
        </mxCell>
        <mxCell id="ngdOXHzbLKuu0vALFX47-11" value="" style="edgeStyle=orthogonalEdgeStyle;rounded=0;orthogonalLoop=1;jettySize=auto;html=1;" parent="1" source="ngdOXHzbLKuu0vALFX47-8" target="ngdOXHzbLKuu0vALFX47-10" edge="1">
          <mxGeometry relative="1" as="geometry" />
        </mxCell>
        <mxCell id="ngdOXHzbLKuu0vALFX47-8" value="Geo located load balancer" style="rounded=0;whiteSpace=wrap;html=1;" parent="1" vertex="1">
          <mxGeometry x="220" y="40" width="100" height="80" as="geometry" />
        </mxCell>
        <mxCell id="ngdOXHzbLKuu0vALFX47-13" value="POST" style="edgeStyle=orthogonalEdgeStyle;rounded=0;orthogonalLoop=1;jettySize=auto;html=1;entryX=0.5;entryY=0;entryDx=0;entryDy=0;entryPerimeter=0;" parent="1" source="ngdOXHzbLKuu0vALFX47-10" target="ngdOXHzbLKuu0vALFX47-14" edge="1">
          <mxGeometry relative="1" as="geometry">
            <mxPoint x="450" y="200" as="targetPoint" />
            <mxPoint as="offset" />
          </mxGeometry>
        </mxCell>
        <mxCell id="5BMN_fGrGqiE8TKxa8iL-5" style="edgeStyle=orthogonalEdgeStyle;rounded=0;orthogonalLoop=1;jettySize=auto;html=1;exitX=0.25;exitY=1;exitDx=0;exitDy=0;" edge="1" parent="1" source="ngdOXHzbLKuu0vALFX47-10" target="5BMN_fGrGqiE8TKxa8iL-3">
          <mxGeometry relative="1" as="geometry" />
        </mxCell>
        <mxCell id="5BMN_fGrGqiE8TKxa8iL-6" value="GET" style="edgeStyle=orthogonalEdgeStyle;rounded=0;orthogonalLoop=1;jettySize=auto;html=1;exitX=0.25;exitY=1;exitDx=0;exitDy=0;" edge="1" parent="1" source="ngdOXHzbLKuu0vALFX47-10" target="5BMN_fGrGqiE8TKxa8iL-1">
          <mxGeometry relative="1" as="geometry">
            <Array as="points">
              <mxPoint x="425" y="250" />
              <mxPoint x="444" y="250" />
            </Array>
          </mxGeometry>
        </mxCell>
        <mxCell id="ngdOXHzbLKuu0vALFX47-10" value="RESTful API service" style="rounded=0;whiteSpace=wrap;html=1;" parent="1" vertex="1">
          <mxGeometry x="400" y="40" width="100" height="80" as="geometry" />
        </mxCell>
        <mxCell id="ngdOXHzbLKuu0vALFX47-16" value="" style="edgeStyle=orthogonalEdgeStyle;rounded=0;orthogonalLoop=1;jettySize=auto;html=1;entryX=0.5;entryY=0;entryDx=0;entryDy=0;" parent="1" source="ngdOXHzbLKuu0vALFX47-14" target="ngdOXHzbLKuu0vALFX47-17" edge="1">
          <mxGeometry relative="1" as="geometry">
            <mxPoint x="550" y="334" as="targetPoint" />
          </mxGeometry>
        </mxCell>
        <mxCell id="ngdOXHzbLKuu0vALFX47-14" value="Creation Queue" style="sketch=0;aspect=fixed;pointerEvents=1;shadow=0;dashed=0;html=1;strokeColor=none;labelPosition=center;verticalLabelPosition=bottom;verticalAlign=top;align=center;fillColor=#00188D;shape=mxgraph.azure.queue_generic" parent="1" vertex="1">
          <mxGeometry x="490" y="230" width="120" height="36" as="geometry" />
        </mxCell>
        <mxCell id="5BMN_fGrGqiE8TKxa8iL-2" value="" style="edgeStyle=orthogonalEdgeStyle;rounded=0;orthogonalLoop=1;jettySize=auto;html=1;" edge="1" parent="1" source="ngdOXHzbLKuu0vALFX47-17" target="5BMN_fGrGqiE8TKxa8iL-1">
          <mxGeometry relative="1" as="geometry" />
        </mxCell>
        <mxCell id="5BMN_fGrGqiE8TKxa8iL-4" value="" style="edgeStyle=orthogonalEdgeStyle;rounded=0;orthogonalLoop=1;jettySize=auto;html=1;" edge="1" parent="1" source="ngdOXHzbLKuu0vALFX47-17" target="5BMN_fGrGqiE8TKxa8iL-3">
          <mxGeometry relative="1" as="geometry" />
        </mxCell>
        <mxCell id="ngdOXHzbLKuu0vALFX47-17" value="URL Creation Service" style="rounded=0;whiteSpace=wrap;html=1;" parent="1" vertex="1">
          <mxGeometry x="500" y="370" width="120" height="60" as="geometry" />
        </mxCell>
        <mxCell id="5BMN_fGrGqiE8TKxa8iL-1" value="URL Database" style="shape=datastore;whiteSpace=wrap;html=1;" vertex="1" parent="1">
          <mxGeometry x="414" y="270" width="60" height="60" as="geometry" />
        </mxCell>
        <mxCell id="5BMN_fGrGqiE8TKxa8iL-3" value="Cache" style="image;aspect=fixed;html=1;points=[];align=center;fontSize=12;image=img/lib/azure2/databases/Cache_Redis.svg;" vertex="1" parent="1">
          <mxGeometry x="330" y="374" width="64" height="52" as="geometry" />
        </mxCell>
      </root>
    </mxGraphModel>
  </diagram>
</mxfile>
